grf
version=1
nRows=15
nColumns=37
inDegrees=no
endheader
time	ground_force_1_vx	ground_force_1_vy	ground_force_1_vz	ground_force_1_px	ground_force_1_py	ground_force_1_pz	ground_moment_1_mx	ground_moment_1_my	ground_moment_1_mz	ground_force_2_vx	ground_force_2_vy	ground_force_2_vz	ground_force_2_px	ground_force_2_py	ground_force_2_pz	ground_moment_2_mx	ground_moment_2_my	ground_moment_2_mz	ground_force_3_vx	ground_force_3_vy	ground_force_3_vz	ground_force_3_px	ground_force_3_py	ground_force_3_pz	ground_moment_3_mx	ground_moment_3_my	ground_moment_3_mz	ground_force_4_vx	ground_force_4_vy	ground_force_4_vz	ground_force_4_px	ground_force_4_py	ground_force_4_pz	ground_moment_4_mx	ground_moment_4_my	ground_moment_4_mz
      3.20000000	      0.00000000	     -0.00000000	      0.00000000	      0.00000000	      0.00000000	      0.00000000	      0.00000000	      0.00000000	      0.00000000	     -1.05889130	      9.02541924	   -271.02719116	   -292.57578077	  -1136.97112606	      0.00000000	      0.00000000	      0.00000000	   4326.92738002	     13.14069342	     -5.53101073	   -276.91821289	   -300.30031768	   -700.19994585	      0.00000000	      0.00000000	     -0.00000000	  -1916.97527094	      0.00000000	     -0.00000000	      0.00000000	      0.00000000	      0.00000000	      0.00000000	      0.00000000	      0.00000000	      0.00000000
      3.21000000	      0.00000000	     -0.00000000	      0.00000000	      0.00000000	      0.00000000	      0.00000000	      0.00000000	      0.00000000	      0.00000000	     -0.95719701	      8.51074409	   -268.29272461	   -291.71667727	  -1137.39046998	      0.00000000	      0.00000000	      0.00000000	   4348.41135642	     13.39311388	     -4.89108955	   -270.63943481	   -300.10007757	   -699.57646849	      0.00000000	      0.00000000	     -0.00000000	  -2055.27304181	      0.00000000	     -0.00000000	      0.00000000	      0.00000000	      0.00000000	      0.00000000	      0.00000000	      0.00000000	      0.00000000
      3.22000000	      0.00000000	     -0.00000000	      0.00000000	      0.00000000	      0.00000000	      0.00000000	      0.00000000	      0.00000000	      0.00000000	     -0.51033187	      7.97892189	   -265.59130859	   -292.12290989	  -1137.26386067	      0.00000000	      0.00000000	      0.00000000	   4407.48115294	     13.82655889	     -4.10532010	   -267.45013428	   -300.60710417	   -700.92697485	      0.00000000	      0.00000000	     -0.00000000	  -2194.74509372	      0.00000000	     -0.00000000	      0.00000000	      0.00000000	      0.00000000	      0.00000000	      0.00000000	      0.00000000	      0.00000000
      3.23000000	      0.00000000	     -0.00000000	      0.00000000	      0.00000000	      0.00000000	      0.00000000	      0.00000000	      0.00000000	      0.00000000	      0.89674711	      7.27932692	   -268.80261230	   -291.81693718	  -1135.92767086	      0.00000000	      0.00000000	      0.00000000	   4658.75240222	     14.95830335	     -2.27538508	   -270.64266968	   -301.28554108	   -700.07501151	      0.00000000	      0.00000000	     -0.00000000	  -2383.10931206	      0.00000000	     -0.00000000	      0.00000000	      0.00000000	      0.00000000	      0.00000000	      0.00000000	      0.00000000	      0.00000000
      3.24000000	      0.00000000	     -0.00000000	      0.00000000	      0.00000000	      0.00000000	      0.00000000	      0.00000000	      0.00000000	      0.00000000	      2.90225744	      6.62980175	   -277.27597046	   -293.28467708	  -1137.42921427	      0.00000000	      0.00000000	      0.00000000	   4765.88303724	     17.24386020	     -1.10123102	   -275.51049805	   -302.61941795	   -700.04279154	      0.00000000	      0.00000000	     -0.00000000	  -2597.85852092	      0.00000000	     -0.00000000	      0.00000000	      0.00000000	      0.00000000	      0.00000000	      0.00000000	      0.00000000	      0.00000000
      3.25000000	      0.00000000	     -0.00000000	      0.00000000	      0.00000000	      0.00000000	      0.00000000	      0.00000000	      0.00000000	      0.00000000	      4.67327070	      5.75238895	   -286.59176636	   -295.70431387	  -1136.07155513	      0.00000000	      0.00000000	      0.00000000	   4802.59042714	     18.90916061	      0.02040430	   -286.35848999	   -303.78298123	   -701.58829853	      0.00000000	      0.00000000	     -0.00000000	  -2806.47560462	      0.00000000	     -0.00000000	      0.00000000	      0.00000000	      0.00000000	      0.00000000	      0.00000000	      0.00000000	      0.00000000
      3.26000000	      0.00000000	     -0.00000000	      0.00000000	      0.00000000	      0.00000000	      0.00000000	      0.00000000	      0.00000000	      0.00000000	      6.75970697	      5.56663179	   -299.52084351	   -296.38301042	  -1136.62964142	      0.00000000	      0.00000000	      0.00000000	   4992.57331187	     20.93574530	      1.31705312	   -301.88137817	   -305.25208409	   -702.58006685	      0.00000000	      0.00000000	     -0.00000000	  -3134.68652842	      0.00000000	     -0.00000000	      0.00000000	      0.00000000	      0.00000000	      0.00000000	      0.00000000	      0.00000000	      0.00000000
      3.27000000	      0.00000000	     -0.00000000	      0.00000000	      0.00000000	      0.00000000	      0.00000000	      0.00000000	      0.00000000	      0.00000000	      9.97698689	      3.92173767	   -315.62731934	   -297.15002133	  -1136.63442178	      0.00000000	      0.00000000	      0.00000000	   5239.14603563	     22.72990618	      2.29636284	   -321.31970215	   -306.80779733	   -704.79678314	      0.00000000	      0.00000000	     -0.00000000	  -3303.67971180	      0.00000000	     -0.00000000	      0.00000000	      0.00000000	      0.00000000	      0.00000000	      0.00000000	      0.00000000	      0.00000000
      3.28000000	      0.00000000	     -0.00000000	      0.00000000	      0.00000000	      0.00000000	      0.00000000	      0.00000000	      0.00000000	      0.00000000	     12.48479652	      3.74347687	   -335.95214844	   -298.90018549	  -1134.06373850	      0.00000000	      0.00000000	      0.00000000	   5611.99693773	     25.10515227	      3.19439468	   -343.64254761	   -308.09224597	   -705.68158193	      0.00000000	      0.00000000	     -0.00000000	  -3510.13845185	      0.00000000	     -0.00000000	      0.00000000	      0.00000000	      0.00000000	      0.00000000	      0.00000000	      0.00000000	      0.00000000
      3.29000000	      0.00000000	     -0.00000000	      0.00000000	      0.00000000	      0.00000000	      0.00000000	      0.00000000	      0.00000000	      0.00000000	     15.59637833	      3.92570281	   -363.77532959	   -300.30042736	  -1133.52326246	      0.00000000	      0.00000000	      0.00000000	   6088.85088582	     27.48504087	      4.66176390	   -369.67532349	   -310.07760700	   -707.00079330	      0.00000000	     -0.00000000	     -0.00000000	  -3707.01428884	      0.00000000	     -0.00000000	      0.00000000	      0.00000000	      0.00000000	      0.00000000	      0.00000000	      0.00000000	      0.00000000
      3.30000000	      0.00000000	     -0.00000000	      0.00000000	      0.00000000	      0.00000000	      0.00000000	      0.00000000	      0.00000000	      0.00000000	     19.16439247	      3.72433472	   -396.96121216	   -301.64100226	  -1132.13581103	      0.00000000	      0.00000000	      0.00000000	   6732.28478272	     32.08189419	      6.14786389	   -405.37838745	   -311.69809279	   -708.26291228	      0.00000000	      0.00000000	     -0.00000000	  -3934.53527926	      0.00000000	     -0.00000000	      0.00000000	      0.00000000	      0.00000000	      0.00000000	      0.00000000	      0.00000000	      0.00000000
      3.31000000	      0.00000000	     -0.00000000	      0.00000000	      0.00000000	      0.00000000	      0.00000000	      0.00000000	      0.00000000	      0.00000000	     22.81901360	      3.47866917	   -437.24700928	   -302.70403184	  -1132.35785272	      0.00000000	      0.00000000	      0.00000000	   7230.36970024	     38.16445955	      7.45381236	   -443.08401489	   -313.80927959	   -709.60511069	      0.00000000	      0.00000000	     -0.00000000	  -4126.96790573	      0.00000000	     -0.00000000	      0.00000000	      0.00000000	      0.00000000	      0.00000000	      0.00000000	      0.00000000	      0.00000000
      3.32000000	      0.00000000	     -0.00000000	      0.00000000	      0.00000000	      0.00000000	      0.00000000	      0.00000000	      0.00000000	      0.00000000	     25.38780975	      4.36551428	   -478.00711060	   -302.75083145	  -1131.91738689	      0.00000000	      0.00000000	      0.00000000	   7676.52917169	     43.05981865	      8.65552333	   -481.27682495	   -314.74235014	   -710.18166562	      0.00000000	      0.00000000	     -0.00000000	  -4540.32580375	      0.00000000	     -0.00000000	      0.00000000	      0.00000000	      0.00000000	      0.00000000	      0.00000000	      0.00000000	      0.00000000
      3.33000000	      0.00000000	     -0.00000000	      0.00000000	      0.00000000	      0.00000000	      0.00000000	      0.00000000	      0.00000000	      0.00000000	     26.13754845	      7.07672787	   -514.72802734	   -302.25352673	  -1131.84312198	      0.00000000	      0.00000000	      0.00000000	   7971.63986198	     45.68730199	      8.21391478	   -522.54125977	   -314.59464615	   -710.70886795	      0.00000000	      0.00000000	     -0.00000000	  -5278.08304453	      0.00000000	     -0.00000000	      0.00000000	      0.00000000	      0.00000000	      0.00000000	      0.00000000	      0.00000000	      0.00000000
      3.34000000	      0.00000000	     -0.00000000	      0.00000000	      0.00000000	      0.00000000	      0.00000000	      0.00000000	      0.00000000	      0.00000000	     25.12131310	      9.78679276	   -547.07757568	   -301.05987213	  -1130.86355813	      0.00000000	      0.00000000	      0.00000000	   8366.67770529	     45.89884590	      5.10418787	   -556.96984863	   -314.17685810	   -710.30538280	      0.00000000	      0.00000000	     -0.00000000	  -5772.30696390	      0.00000000	     -0.00000000	      0.00000000	      0.00000000	      0.00000000	      0.00000000	      0.00000000	      0.00000000	      0.00000000
